<?xml version="1.0" encoding="utf-8"?>
<!-- Generator: Adobe Illustrator 19.0.0, SVG Export Plug-In . SVG Version: 6.00 Build 0)  -->
<svg version="1.1" id="Слой_1" xmlns="http://www.w3.org/2000/svg" xmlns:xlink="http://www.w3.org/1999/xlink" x="0px" y="0px"
	 viewBox="0 0 20 20" style="enable-background:new 0 0 20 20;" xml:space="preserve">
<style type="text/css">
	.st0{fill-rule:evenodd;clip-rule:evenodd;fill:#D24A48;}
</style>
<path id="XMLID_2_" class="st0" d="M10,15.6c-0.4,0-0.7,0.3-0.7,0.7c0,0.4,0.3,0.7,0.7,0.7c0.4,0,0.7-0.3,0.7-0.7
	C10.7,15.9,10.4,15.6,10,15.6z M10,4.4c0.4,0,0.7-0.3,0.7-0.7c0-0.4-0.3-0.7-0.7-0.7c-0.4,0-0.7,0.3-0.7,0.7C9.4,4.1,9.7,4.4,10,4.4
	z M10,0C4.5,0,0,4.5,0,10c0,5.5,4.5,10,10,10c5.5,0,10-4.5,10-10C20,4.5,15.5,0,10,0z M10,17.6c-4.2,0-7.6-3.4-7.6-7.6
	c0-4.2,3.4-7.6,7.6-7.6s7.6,3.4,7.6,7.6C17.6,14.2,14.2,17.6,10,17.6z M3.8,9.3c-0.4,0-0.7,0.3-0.7,0.7c0,0.4,0.3,0.7,0.7,0.7
	c0.4,0,0.7-0.3,0.7-0.7C4.4,9.6,4.1,9.3,3.8,9.3z M16.3,9.3c-0.4,0-0.7,0.3-0.7,0.7c0,0.4,0.3,0.7,0.7,0.7c0.4,0,0.7-0.3,0.7-0.7
	C16.9,9.6,16.6,9.3,16.3,9.3z M13.1,6.3L9.9,9.5L8.2,7.7c-0.3-0.3-0.8-0.3-1.1,0C6.8,8,6.8,8.5,7.1,8.8l2.4,2.4c0,0,0.3,0.3,0.7,0.1
	c0.4-0.2,4-3.9,4-3.9c0.3-0.3,0.3-0.8,0-1.1C13.9,6,13.4,6,13.1,6.3z"/>
</svg>
