<?xml version="1.0" encoding="utf-8"?>
<!-- Generator: Adobe Illustrator 19.0.0, SVG Export Plug-In . SVG Version: 6.00 Build 0)  -->
<svg version="1.1" id="Слой_1" xmlns="http://www.w3.org/2000/svg" xmlns:xlink="http://www.w3.org/1999/xlink" x="0px" y="0px"
	 viewBox="0 0 27 28" style="enable-background:new 0 0 27 28;" xml:space="preserve">
<style type="text/css">
	.st0{fill-rule:evenodd;clip-rule:evenodd;fill:#FFFFFF;}
</style>
<path id="XMLID_4_" class="st0" d="M13.9,12l-6.2,6.4l-5.7-0.3L0,20.6L5.6,22c0,0,0.2-0.3-1,1c-1.2,1.3-0.2,1.6,0.8,0.7
	c1-0.8,1-1,1-1L8.8,28l1.9-3.1l-1.3-4.2L16,14l6,13.1l1.8-1.6L21.5,8c0,0,4.7-5.2,5.2-6.5c0.5-1.2,0.4-2.1-1.3-1.2
	C23.8,1.2,19,6,19,6L2.8,5.5L0,7.8L13.9,12z"/>
</svg>
