<?xml version="1.0" encoding="utf-8"?>
<!-- Generator: Adobe Illustrator 19.0.0, SVG Export Plug-In . SVG Version: 6.00 Build 0)  -->
<svg version="1.1" id="Слой_1" xmlns="http://www.w3.org/2000/svg" xmlns:xlink="http://www.w3.org/1999/xlink" x="0px" y="0px"
	 viewBox="0 0 17 18" style="enable-background:new 0 0 17 18;" xml:space="preserve">
<style type="text/css">
	.st0{fill-rule:evenodd;clip-rule:evenodd;fill:#D6D6D6;}
</style>
<path id="XMLID_2_" class="st0" d="M12.6,6.7C12.6,3,9.8,0,6.3,0C2.8,0,0,3,0,6.7c0,3.7,2.8,6.7,6.3,6.7
	C9.8,13.4,12.6,10.4,12.6,6.7z M6.3,11.2c-2.3,0-4.2-2-4.2-4.5c0-2.5,1.9-4.5,4.2-4.5c2.3,0,4.2,2,4.2,4.5
	C10.5,9.2,8.6,11.2,6.3,11.2z M16.6,14.9l-3.8-4c-0.5-0.6-0.3,0.2-0.8,0.7l-0.8,0.8c-0.5,0.5-1.6,0.5-0.9,1.2l3.8,4
	c0.5,0.5,1.3,0.5,1.8,0l0.8-0.8C17.1,16.2,17.1,15.4,16.6,14.9z"/>
</svg>
