<?xml version="1.0" encoding="utf-8"?>
<!-- Generator: Adobe Illustrator 19.0.0, SVG Export Plug-In . SVG Version: 6.00 Build 0)  -->
<svg version="1.1" id="Layer_1" xmlns="http://www.w3.org/2000/svg" xmlns:xlink="http://www.w3.org/1999/xlink" x="0px" y="0px"
	 viewBox="0 0 26 43" style="enable-background:new 0 0 26 43;" xml:space="preserve">
<style type="text/css">
	.st0{fill:#010101;}
</style>
<path id="XMLID_1_" class="st0" d="M0,39.4c0-0.4,0.1-0.7,0.4-1L18,21.5L0.4,4.6C0.1,4.3,0,3.9,0,3.6c0-0.4,0.1-0.7,0.4-1l2.2-2.2
	C3,0.1,3.3,0,3.7,0c0.4,0,0.7,0.1,1,0.4l20.8,20.1c0.3,0.3,0.4,0.6,0.4,1s-0.1,0.7-0.4,1L4.7,42.6c-0.3,0.3-0.6,0.4-1,0.4
	s-0.7-0.1-1-0.4l-2.2-2.2C0.1,40.1,0,39.8,0,39.4z"/>
</svg>
