<?xml version="1.0" encoding="utf-8"?>
<!-- Generator: Adobe Illustrator 19.0.0, SVG Export Plug-In . SVG Version: 6.00 Build 0)  -->
<svg version="1.1" id="Слой_1" xmlns="http://www.w3.org/2000/svg" xmlns:xlink="http://www.w3.org/1999/xlink" x="0px" y="0px"
	 viewBox="0 0 39 57" style="enable-background:new 0 0 39 57;" xml:space="preserve">
<style type="text/css">
	.st0{fill:#7649AF;}
</style>
<path id="XMLID_2_" class="st0" d="M1.8,9.8l18.8,18.7L1.8,47.3c-0.4,0.4-0.6,0.9-0.6,1.6s0.2,1.2,0.6,1.6l5.9,5.9
	c0.5,0.4,1,0.6,1.6,0.6s1.1-0.2,1.6-0.6l26.2-26.3c0.5-0.4,0.7-1,0.7-1.6s-0.2-1.2-0.7-1.6L10.9,0.7C10.5,0.2,9.9,0,9.3,0
	C8.7,0,8.1,0.2,7.7,0.7L1.8,6.6C1.4,7,1.2,7.5,1.2,8.2S1.4,9.3,1.8,9.8z"/>
</svg>
