<?xml version="1.0" encoding="utf-8"?>
<!-- Generator: Adobe Illustrator 19.0.0, SVG Export Plug-In . SVG Version: 6.00 Build 0)  -->
<svg version="1.1" id="Слой_1" xmlns="http://www.w3.org/2000/svg" xmlns:xlink="http://www.w3.org/1999/xlink" x="0px" y="0px"
	 viewBox="0 0 20 30" style="enable-background:new 0 0 20 30;" xml:space="preserve">
<style type="text/css">
	.st0{fill:none;}
</style>
<path id="XMLID_2_" class="st0" d="M0.7,5.2l9.9,9.8l-9.9,9.9c-0.2,0.2-0.3,0.5-0.3,0.8s0.1,0.6,0.3,0.8l3.1,3.1
	C4.1,29.9,4.3,30,4.6,30s0.6-0.1,0.8-0.3l13.8-13.8c0.3-0.2,0.4-0.5,0.4-0.8s-0.1-0.6-0.4-0.8L5.5,0.4C5.3,0.1,4.9,0,4.6,0
	S4,0.1,3.8,0.4L0.7,3.5C0.5,3.7,0.4,4,0.4,4.3C0.4,4.6,0.5,4.9,0.7,5.2z"/>
</svg>
