<?xml version="1.0" encoding="utf-8"?>
<!-- Generator: Adobe Illustrator 19.0.0, SVG Export Plug-In . SVG Version: 6.00 Build 0)  -->
<svg version="1.1" id="Слой_1" xmlns="http://www.w3.org/2000/svg" xmlns:xlink="http://www.w3.org/1999/xlink" x="0px" y="0px"
	 viewBox="0 0 20 30" style="enable-background:new 0 0 20 30;" xml:space="preserve">
<style type="text/css">
	.st0{fill:none;}
</style>
<path id="XMLID_2_" class="st0" d="M19.3,24.8L9.4,15l9.9-9.9c0.2-0.2,0.3-0.5,0.3-0.8s-0.1-0.6-0.3-0.8l-3.1-3.1
	C15.9,0.1,15.7,0,15.4,0s-0.6,0.1-0.8,0.3L0.7,14.2c-0.3,0.2-0.4,0.5-0.4,0.8s0.1,0.6,0.4,0.8l13.8,13.8c0.2,0.3,0.5,0.4,0.8,0.4
	s0.6-0.1,0.8-0.4l3.1-3.1c0.2-0.2,0.3-0.5,0.3-0.8S19.5,25.1,19.3,24.8z"/>
</svg>
