<?xml version="1.0" encoding="utf-8"?>
<!-- Generator: Adobe Illustrator 19.0.0, SVG Export Plug-In . SVG Version: 6.00 Build 0)  -->
<svg version="1.1" id="Слой_1" xmlns="http://www.w3.org/2000/svg" xmlns:xlink="http://www.w3.org/1999/xlink" x="0px" y="0px"
	 viewBox="0 0 39 57" style="enable-background:new 0 0 39 57;" xml:space="preserve">
<style type="text/css">
	.st0{fill:#7649AF;}
</style>
<path id="XMLID_2_" class="st0" d="M37.2,47.2L18.4,28.5L37.2,9.7c0.4-0.4,0.6-0.9,0.6-1.6s-0.2-1.2-0.6-1.6l-5.9-5.9
	c-0.5-0.4-1-0.6-1.6-0.6c-0.6,0-1.1,0.2-1.6,0.6L1.9,26.9c-0.5,0.4-0.7,1-0.7,1.6s0.2,1.2,0.7,1.6l26.2,26.2c0.4,0.5,1,0.7,1.6,0.7
	s1.2-0.2,1.6-0.7l5.9-5.9c0.4-0.4,0.6-1,0.6-1.6C37.8,48.2,37.6,47.7,37.2,47.2z"/>
</svg>
