<svg fill="#fff" xmlns="http://www.w3.org/2000/svg" viewBox="-63 -16 512 512"><path d="M92.6 320.4h283.5c31.3 0 56.7-25.5 56.7-56.7V144.2c0-7-5.7-12.7-12.7-12.7-7 0-12.7 5.7-12.7 12.7v119.3c0 17.4-14.1 31.4-31.4 31.4H92.6c-17.4 0-31.4-14.1-31.4-31.4V30.3c0-.4 0-.9-.1-1.4v-.3c0-.3-.1-.6-.1-.8 0-.2-.1-.5-.2-.7l-.1-.4-.3-.8-.1-.3-.3-.7-.2-.4-.3-.6-.3-.5-.3-.4c-.1-.2-.3-.4-.4-.5l-.3-.3-.5-.6c-.1-.1-.2-.2-.3-.2-.2-.2-.4-.4-.6-.5l-.3-.3-.6-.4-.7-.5c-.1 0-.2-.1-.2-.2-.4-.2-.8-.4-1.3-.6l-77.9-32.7C-31-17-38.3-14-41.1-7.5c-2.7 6.3.3 13.8 6.8 16.5l70.1 29.6v313.8c0 29.7 22.9 54.1 52 56.5-5.9 8.9-9.4 19.5-9.4 31 0 30.9 25.2 56.1 56.1 56.1 30.9 0 56.1-25.2 56.1-56.1 0-11.4-3.4-21.9-9.2-30.8h134.2c-5.8 8.9-9.2 19.4-9.2 30.8 0 30.9 25.2 56.1 56.1 56.1 30.9 0 56.1-25.2 56.1-56.1 0-30.9-25.2-56.1-56.1-56.1H92.6c-17.4 0-31.4-14.1-31.4-31.4v-41.6c8.9 6 19.8 9.6 31.4 9.6zm269.8 88.7c17 0 30.8 13.8 30.8 30.8s-13.8 30.8-30.8 30.8-30.8-13.8-30.8-30.8 13.8-30.8 30.8-30.8zm-227.9 0c17 0 30.8 13.8 30.8 30.8s-13.8 30.8-30.8 30.8-30.8-13.8-30.8-30.8 13.8-30.8 30.8-30.8z"/></svg>