<?xml version="1.0" encoding="utf-8"?>
<!-- Generator: Adobe Illustrator 19.0.0, SVG Export Plug-In . SVG Version: 6.00 Build 0)  -->
<svg version="1.1" id="Слой_1" xmlns="http://www.w3.org/2000/svg" xmlns:xlink="http://www.w3.org/1999/xlink" x="0px" y="0px"
	 viewBox="0 0 500 500" style="enable-background:new 0 0 500 500;" xml:space="preserve">
<style type="text/css">
	.st0{fill:#00B06B;}
</style>
<g id="XMLID_2_">
	<title>Layer 1</title>
	<path id="svg_1" class="st0" d="M490.3,79L446,35.4c-6.2-6.1-13.6-9.1-22-9.1s-15.8,3.2-21.9,9.4L192.2,249.5l-95.5-94.6
		c-6.2-6.1-13.6-9.1-22-9.1c-8.5,0.1-15.8,3.2-21.9,9.4L9.2,199.5c-5.7,6.2-8.6,13.6-8.5,22s3,15.8,8.8,21.9l117.7,115.8l44.3,43.6
		c6.2,5.7,13.6,8.6,22,8.5c8.5-0.1,15.8-3,21.9-8.8l43.6-44.3l231.7-235.4c6.1-6.2,9.1-13.6,9.1-22C499.7,92,496.5,84.7,490.3,79z"
		/>
</g>
</svg>
