<svg xmlns="http://www.w3.org/2000/svg" width="1024" height="1024"><path fill="#D3D3D3" d="M853.333 0H170.666v85.333h682.667V0zM170.667 1024h682.667v-85.333H170.667V1024zm682.666-853.333H170.666c-46.933 0-85.333 38.4-85.333 85.333v512c0 46.933 38.4 85.333 85.333 85.333h682.667c46.933 0 85.333-38.4 85.333-85.333V256c0-46.933-38.4-85.333-85.333-85.333zM512 288c52.907 0 96 43.093 96 96s-43.093 96-96 96-96-43.093-96-96 43.093-96 96-96zm213.333 437.333H298.666v-64c0-71.253 142.08-106.667 213.333-106.667s213.333 35.413 213.333 106.667v64z"/></svg>