<!-- Generated by IcoMoon.io -->
<svg version="1.1" xmlns="http://www.w3.org/2000/svg" width="1024" height="1024" viewBox="0 0 1024 1024">
<title></title>
<g id="icomoon-ignore">
</g>
<path fill="#3AC7F4" d="M981.333 469.76l-213.333-0.427c-23.467 0-42.667 19.2-42.667 42.667v384c0 23.467 19.2 42.667 42.667 42.667h213.333c23.467 0 42.667-19.2 42.667-42.667v-384c0-23.467-19.2-42.24-42.667-42.24zM981.333 853.333h-213.333v-298.667h213.333v298.667zM853.333 85.333h-768c-47.36 0-85.333 37.973-85.333 85.333v512c0 46.933 37.973 85.333 85.333 85.333h298.667v85.333h-85.333v85.333h341.333v-85.333h-85.333v-85.333h85.333v-85.333h-554.667v-512h768v213.333h85.333v-213.333c0-47.36-38.4-85.333-85.333-85.333zM510.72 384l-41.387-128-41.387 128h-129.28l105.387 75.093-40.107 124.16 105.387-76.8 105.387 76.8-40.107-124.16 105.387-75.093h-129.28z"></path>
</svg>
