<!-- Generated by IcoMoon.io -->
<svg version="1.1" xmlns="http://www.w3.org/2000/svg" width="1024" height="1024" viewBox="0 0 1024 1024">
<title></title>
<g id="icomoon-ignore">
</g>
<path fill="#c0c0c0" d="M682.667 469.333c70.827 0 127.573-57.173 127.573-128s-56.747-128-127.573-128c-70.827 0-128 57.173-128 128s57.173 128 128 128zM341.333 469.333c70.827 0 127.573-57.173 127.573-128s-56.747-128-127.573-128c-70.827 0-128 57.173-128 128s57.173 128 128 128zM341.333 554.667c-99.413 0-298.667 49.92-298.667 149.333v106.667h597.333v-106.667c0-99.413-199.253-149.333-298.667-149.333zM682.667 554.667c-12.373 0-26.453 0.853-41.387 2.133 49.493 35.84 84.053 84.053 84.053 147.2v106.667h256v-106.667c0-99.413-199.253-149.333-298.667-149.333z"></path>
</svg>
