<svg xmlns="http://www.w3.org/2000/svg" width="36" height="28" viewBox="0 0 36 28"><title>handshake-o</title><path fill="#FF6135" d="M3 18c1.313 0 1.313-2 0-2s-1.313 2 0 2zm23.016-.906c-1.234-1.609-2.438-3.25-3.844-4.719l-1.953 2.188c-1.719 1.953-4.797 1.906-6.469-.094a3.806 3.806 0 0 1 .031-4.922l2.766-3.219C15.578 5.828 14.406 6 13.36 6c-.922 0-1.813.375-2.469 1.031L8.422 9.5H6V18c.688 0 1.312-.094 1.859.438L12.5 23c.953.922 2.187 1.734 3.547 1.734.703 0 1.453-.234 1.953-.734 1.172.406 2.531-.25 2.891-1.453a2.51 2.51 0 0 0 1.984-.688c.359-.328.828-.984.781-1.5.141.141.484.156.672.156 1.859 0 2.828-1.953 1.687-3.422zM28.5 18H30v-8h-1.453l-2.453-2.812A3.543 3.543 0 0 0 23.453 6h-2.609c-.875 0-1.719.391-2.281 1.047l-3.266 3.797a1.82 1.82 0 0 0-.016 2.344c.891 1.062 2.531 1.078 3.453.047l3.016-3.406c.719-.797 2.031-.047 1.703.969.594.688 1.234 1.359 1.813 2.047.781.969 1.531 1.984 2.297 2.969.484.625.844 1.375.938 2.188zm4.5 0c1.313 0 1.313-2 0-2s-1.313 2 0 2zm3-9v10c0 .547-.453 1-1 1h-6.781c-.562 1.359-1.797 2.266-3.234 2.469-.672.984-1.703 1.734-2.859 1.984-.859 1.094-2.25 1.75-3.641 1.656-2.578 1.453-5.484.187-7.406-1.703L6.595 20H1.001c-.547 0-1-.453-1-1V8.5c0-.547.453-1 1-1h6.578C9.392 5.687 10.641 4 13.36 4h1.828c1.016 0 2 .313 2.828.875A5.044 5.044 0 0 1 20.844 4h2.609c2.969 0 4.203 1.937 6 4H35c.547 0 1 .453 1 1z"/></svg>