<!-- Generated by IcoMoon.io -->
<svg version="1.1" xmlns="http://www.w3.org/2000/svg" width="1024" height="1024" viewBox="0 0 1024 1024">
<title></title>
<g id="icomoon-ignore">
</g>
<path fill="#FC6921" d="M512 251.733c49.493 0 89.6 40.107 89.6 89.6s-40.107 89.6-89.6 89.6-89.6-40.107-89.6-89.6 40.107-89.6 89.6-89.6zM512 635.733c126.72 0 260.267 62.293 260.267 89.6v46.933h-520.533v-46.933c0-27.307 133.547-89.6 260.267-89.6zM512 170.667c-94.293 0-170.667 76.373-170.667 170.667s76.373 170.667 170.667 170.667 170.667-76.373 170.667-170.667-76.373-170.667-170.667-170.667zM512 554.667c-113.92 0-341.333 57.173-341.333 170.667v128h682.667v-128c0-113.493-227.413-170.667-341.333-170.667z"></path>
</svg>
