<!-- Generated by IcoMoon.io -->
<svg version="1.1" xmlns="http://www.w3.org/2000/svg" width="1024" height="1024" viewBox="0 0 1024 1024">
<title></title>
<g id="icomoon-ignore">
</g>
<path fill="#d3d3d3" d="M810.667 85.333h-597.333c-47.36 0-85.333 38.4-85.333 85.333v597.333c0 46.933 37.973 85.333 85.333 85.333h170.667l128 128 128-128h170.667c46.933 0 85.333-38.4 85.333-85.333v-597.333c0-46.933-38.4-85.333-85.333-85.333zM512 226.133c63.573 0 115.2 51.627 115.2 115.2s-51.627 115.2-115.2 115.2c-63.573 0-115.2-51.627-115.2-115.2s51.627-115.2 115.2-115.2zM768 682.667h-512v-38.4c0-85.333 170.667-132.267 256-132.267s256 46.933 256 132.267v38.4z"></path>
</svg>
