<!-- Generated by IcoMoon.io -->
<svg version="1.1" xmlns="http://www.w3.org/2000/svg" width="1024" height="1024" viewBox="0 0 1024 1024">
<title></title>
<g id="icomoon-ignore">
</g>
<path fill="#DCDCDC" d="M512 85.333c-235.52 0-426.667 191.147-426.667 426.667s191.147 426.667 426.667 426.667 426.667-191.147 426.667-426.667-191.147-426.667-426.667-426.667zM512 213.333c70.827 0 128 57.173 128 128s-57.173 128-128 128-128-57.173-128-128 57.173-128 128-128zM512 819.2c-106.667 0-200.96-54.613-256-137.387 1.28-84.907 170.667-131.413 256-131.413 84.907 0 254.72 46.507 256 131.413-55.040 82.773-149.333 137.387-256 137.387z"></path>
</svg>
