<svg xmlns="http://www.w3.org/2000/svg" width="1024" height="1024"><path fill="silver" d="M282.453 460.373C343.893 581.12 442.88 679.68 563.626 741.546l93.867-93.867c11.52-11.52 28.587-15.36 43.52-10.24 47.787 15.787 99.413 24.32 152.32 24.32 23.467 0 42.667 19.2 42.667 42.667v148.907C896 876.8 876.8 896 853.333 896 452.693 896 128 571.307 128 170.667 128 147.2 147.2 128 170.667 128H320c23.467 0 42.667 19.2 42.667 42.667 0 53.333 8.533 104.533 24.32 152.32 4.693 14.933 1.28 31.573-10.667 43.52l-93.867 93.867z"/></svg>