<!-- Generated by IcoMoon.io -->
<svg version="1.1" xmlns="http://www.w3.org/2000/svg" width="1024" height="1024" viewBox="0 0 1024 1024">
<title></title>
<g id="icomoon-ignore">
</g>
<path fill="#DCDCDC" d="M853.333 661.333c-53.333 0-104.533-8.533-152.32-24.32-14.933-4.693-31.573-1.28-43.52 10.24l-93.867 93.867c-120.747-61.44-219.733-160-281.173-281.173l93.867-94.293c11.947-11.093 15.36-27.733 10.667-42.667-15.787-47.787-24.32-98.987-24.32-152.32 0-23.467-19.2-42.667-42.667-42.667h-149.333c-23.467 0-42.667 19.2-42.667 42.667 0 400.64 324.693 725.333 725.333 725.333 23.467 0 42.667-19.2 42.667-42.667v-149.333c0-23.467-19.2-42.667-42.667-42.667zM810.667 512h85.333c0-212.053-171.947-384-384-384v85.333c165.12 0 298.667 133.547 298.667 298.667zM640 512h85.333c0-117.76-95.573-213.333-213.333-213.333v85.333c70.827 0 128 57.173 128 128z"></path>
</svg>
