<svg id="Слой_1" xmlns="http://www.w3.org/2000/svg" viewBox="0 0 20 25"><style>.st0{fill:#69B4EC;}</style><path id="XMLID_2_" class="st0" d="M8.8 1.4c0 .1-.1.4-.2.8s-.3 1-.4 1.6-.3.9-.3 1c0 0 0 .2-.1.4 0 .2-.1.4-.1.5-.1 0-.1.1-.2.2-.1.2-.4.2-.7.2-.2 0-.5 0-1-.1h-1c-.3 0-.6 0-.7.1 0 .1-.1.1-.1.2s-.1.2-.1.3c0 .1-.1.2-.1.3-.1.2-.1.2-.1.3-.3 1.2-.5 2.4-.5 3.6s.2 2.4.5 3.6c0 0 0 .1.1.3 0 .1.1.3.1.4 0 .1.1.2.1.3 0 .1.1.2.2.2.1.1.3.2.7.2.2 0 .6 0 1-.1s.8-.1 1-.1c.3 0 .6.1.7.2.1.1.1.2.2.3 0 .1.1.3.1.5.1.2.1.3.1.4 0 .1.1.4.3 1 .2.6.3 1.1.4 1.5.1.4.2.7.2.8 0 .2-.2.4-.6.7s-.8.5-1.1.6c-.2.1-.4.1-.6.1-.3 0-.8-.1-1.4-.3-.5-.2-1-.3-1.4-.6s-.7-.5-1-.9c-.3-.4-.5-.7-.7-1-.2-.3-.4-.7-.6-1.3-.1-.1-.1-.2-.1-.3-.5-1-.8-2-1-3s-.3-2.2-.3-3.4.1-2.4.3-3.5.5-2 1-3c.5-1.1.9-1.9 1.2-2.3C3.1 1.2 3.9.6 5 .3h.1C5.7.1 6.2 0 6.5 0c.2 0 .4 0 .6.1.3.1.7.3 1.1.6s.6.5.6.7zM11 14.3c-.2 0-.4.1-.6.3-.2.2-.3.4-.3.6s.1.4.3.6c.4.4.5.8.5 1.3s-.2.9-.5 1.3c-.2.2-.3.4-.3.7s.1.5.3.6c.2.2.4.3.6.3s.4-.1.6-.3c.7-.7 1.1-1.6 1.1-2.5 0-1-.4-1.8-1.1-2.5-.2-.3-.4-.4-.6-.4zm2.6-2.6c-.3 0-.5.1-.6.3-.2.2-.3.4-.3.6s.1.5.3.6c1 1.1 1.6 2.3 1.6 3.8s-.5 2.8-1.6 3.8c-.2.2-.3.4-.3.7s.1.5.3.6c.2.2.4.3.6.3.2 0 .4-.1.6-.3 1.4-1.4 2.1-3.1 2.1-5.1 0-2-.7-3.7-2.1-5.1-.2-.1-.4-.2-.6-.2zm2.5-2.5c-.3 0-.5.1-.6.3-.2.2-.3.4-.3.6s.1.5.3.6c.8.9 1.5 1.8 1.9 2.9s.7 2.2.7 3.5c0 1.2-.2 2.4-.7 3.4s-1.1 2-1.9 2.9c-.2.2-.3.4-.3.7s.1.5.3.6.4.3.6.3.4-.1.6-.3c1-1 1.8-2.2 2.3-3.5s.8-2.7.8-4.1c0-1.4-.3-2.8-.8-4.1-.6-1.3-1.4-2.5-2.3-3.5-.1-.2-.3-.3-.6-.3z"/></svg>