<!-- Generated by IcoMoon.io -->
<svg version="1.1" xmlns="http://www.w3.org/2000/svg" width="1024" height="1024" viewBox="0 0 1024 1024">
<title></title>
<g id="icomoon-ignore">
</g>
<path fill="#c0c0c0" d="M512 522.667c52.907 0 96-43.093 96-96s-43.093-96-96-96-96 43.093-96 96 43.093 96 96 96zM704 693.333c0-64-128-96-192-96s-192 32-192 96v32h384v-32zM810.667 128h-597.333c-46.933 0-85.333 38.4-85.333 85.333v597.333c0 46.933 38.4 85.333 85.333 85.333h597.333c46.933 0 85.333-38.4 85.333-85.333v-597.333c0-46.933-38.4-85.333-85.333-85.333zM810.667 810.667h-597.333v-597.333h597.333v597.333z"></path>
</svg>
