<svg xmlns="http://www.w3.org/2000/svg" width="26" height="28" viewBox="0 0 26 28"><title>rocket</title><path fill="#FF6135" d="M22.5 7a1.5 1.5 0 1 0-3.001.001A1.5 1.5 0 0 0 22.5 7zM26 2.5c0 5.187-1.437 8.641-5.141 12.359a54.728 54.728 0 0 1-3.047 2.75l-.313 5.922a.57.57 0 0 1-.25.406l-6 3.5a.457.457 0 0 1-.25.063.548.548 0 0 1-.359-.141l-1-1a.54.54 0 0 1-.125-.5l1.328-4.312-4.391-4.391-4.312 1.328c-.047.016-.094.016-.141.016a.518.518 0 0 1-.359-.141l-1-1a.524.524 0 0 1-.078-.609l3.5-6a.571.571 0 0 1 .406-.25l5.922-.313a55.492 55.492 0 0 1 2.75-3.047c3.906-3.891 6.891-5.141 12.328-5.141.281 0 .531.219.531.5z"/></svg>