<svg xmlns="http://www.w3.org/2000/svg" width="1024" height="1024"><path fill="#D3D3D3" d="M554.667 384h-85.333v85.333h85.333V384zm170.666 0H640v85.333h85.333V384zm128 277.333c-53.333 0-104.533-8.533-152.32-24.32-14.933-4.693-31.573-1.28-43.52 10.24l-93.867 93.867c-120.747-61.44-219.733-160-281.173-280.747l93.867-94.293c11.947-11.52 15.36-28.16 10.667-43.093-15.787-47.787-24.32-98.987-24.32-152.32C362.667 147.2 343.467 128 320 128H170.667C147.2 128 128 147.2 128 170.667 128 571.307 452.693 896 853.333 896 876.8 896 896 876.8 896 853.333V704c0-23.467-19.2-42.667-42.667-42.667zM810.667 384v85.333H896V384h-85.333z"/></svg>