<svg id="Слой_1" xmlns="http://www.w3.org/2000/svg" viewBox="0 0 21 25"><style>.st0{fill:#337AB7;}</style><path id="XMLID_2_" class="st0" d="M.5 21.4c0 .6.3 1.1.9 1.6.6.5 1.4.9 2.3 1.1 1 .3 2 .5 3.2.6s2.4.3 3.6.3 2.4-.1 3.6-.2 2.3-.4 3.2-.6c.9-.3 1.7-.7 2.3-1.1.6-.5.9-1 .9-1.6 0-.5-.2-.9-.5-1.2-.3-.4-.7-.7-1.3-.9-.6-.3-1.1-.5-1.7-.6-.6-.2-1.2-.3-1.9-.4-.3 0-.5 0-.7.2-.2.1-.3.3-.4.6-.1.3 0 .5.1.7.1.2.3.3.6.4l1.5.3s.8.3 1.1.4c.3.1.5.2.7.3.2.1.3.2.4.3.1.1.1.1.1.2s-.2.2-.4.4-.6.3-1 .5-1 .3-1.6.5c-.5-.4-1.3-.2-2.1-.2s-1.8.1-2.9.2c-1.1 0-2 0-2.9-.2-.8-.1-1.6-.2-2.3-.4-.7-.1-1.2-.3-1.6-.5s-.7-.3-1-.5c-.3-.1-.4-.3-.4-.4 0-.1 0-.1.1-.2s.2-.2.4-.3.4-.2.7-.3c.3-.1.6-.2 1.1-.4l1.5-.3c.2-.1.4-.2.6-.4.2-.2.2-.4.2-.7-.1-.2-.2-.4-.4-.6-.2-.2-.4-.2-.7-.2-.7.1-1.3.3-1.9.4-.6.2-1.1.4-1.7.6-.5.3-1 .6-1.3.9s-.4 1.2-.4 1.7zM6 8.6V14c0 .3.1.5.3.6.1.3.3.4.6.4h.9v5.4c0 .3.1.5.3.6.2.2.4.3.6.3h3.6c.2 0 .4-.1.6-.3.2-.2.3-.4.3-.6V15h.9c.2 0 .4-.1.6-.3.2-.2.3-.4.3-.6V8.6c0-.5-.2-.9-.5-1.3s-.8-.5-1.3-.5H7.8c-.5 0-1 .2-1.3.6s-.6.7-.5 1.2zm1.3-5.4c0 .9.3 1.6.9 2.2s1.4.9 2.2.9c.9 0 1.6-.3 2.3-.9s1-1.4.9-2.2-.3-1.6-.9-2.3-1.3-.9-2.2-.9c-.9.1-1.7.4-2.2.9s-.9 1.3-1 2.3z"/></svg>