<!-- Generated by IcoMoon.io -->
<svg version="1.1" xmlns="http://www.w3.org/2000/svg" width="1024" height="1024" viewBox="0 0 1024 1024">
<title></title>
<g id="icomoon-ignore">
</g>
<path fill="#DCDCDC" d="M704 682.667c0 23.564-19.103 42.667-42.667 42.667s-42.667-19.103-42.667-42.667c0-23.564 19.103-42.667 42.667-42.667s42.667 19.103 42.667 42.667z"></path>
<path fill="#DCDCDC" d="M405.333 682.667c0 23.564-19.103 42.667-42.667 42.667s-42.667-19.103-42.667-42.667c0-23.564 19.103-42.667 42.667-42.667s42.667 19.103 42.667 42.667z"></path>
<path fill="#DCDCDC" d="M299.093 384h426.667v213.333h-426.667z"></path>
<path fill="#DCDCDC" d="M759.467 119.467c-76.8-30.293-168.107-34.133-247.467-34.133s-170.667 3.84-247.467 34.133c-113.92 44.373-179.2 138.667-179.2 258.56v560.64h853.333v-560.64c0-119.893-65.28-214.187-179.2-258.56zM768 677.547c0 61.867-50.347 111.787-112.213 111.787l48.213 47.787v16.213h-64l-64-64h-120.747l-64 64h-71.253v-16.213l47.787-47.787c-61.44 0-111.787-50.347-111.787-111.787v-293.547c0-112.213 128-128 256-128 141.653 0 256 16.213 256 128v293.547z"></path>
</svg>
