<?xml version="1.0" encoding="utf-8"?>
<!-- Generator: Adobe Illustrator 19.0.0, SVG Export Plug-In . SVG Version: 6.00 Build 0)  -->
<svg version="1.1" id="Capa_1" xmlns="http://www.w3.org/2000/svg" xmlns:xlink="http://www.w3.org/1999/xlink" x="0px" y="0px"
	 viewBox="133 -128.9 284.9 284.9" style="enable-background:new 133 -128.9 284.9 284.9;" xml:space="preserve">
<style type="text/css">
	.st0{fill:#FFFFFF;}
</style>
<g>
	<path class="st0" d="M415.1,66.4L282-66.7c-1.9-1.9-4.1-2.9-6.6-2.9s-4.7,1-6.6,2.9l-133,133c-1.9,1.9-2.9,4.1-2.9,6.6
		c0,2.5,1,4.7,2.9,6.6l14.3,14.3c1.9,1.9,4.1,2.9,6.6,2.9s4.7-1,6.6-2.9L275.5-18.4L387.7,93.8c1.9,1.9,4.1,2.8,6.6,2.8
		c2.5,0,4.7-1,6.6-2.8l14.3-14.3c1.9-1.9,2.8-4.1,2.8-6.6C417.9,70.4,417,68.3,415.1,66.4z"/>
</g>
</svg>
