<svg id="Слой_1" xmlns="http://www.w3.org/2000/svg" viewBox="0 0 13 18"><style>.st0{fill:#fff}</style><g id="XMLID_2_"><path id="XMLID_3_" class="st0" d="M12.8 5.9L7.1.2C6.9.1 6.7 0 6.5 0s-.4.1-.6.2L.2 5.9c-.1.2-.2.4-.2.6 0 .2.1.4.2.6.2.2.4.2.6.2h11.4c.2 0 .4-.1.6-.2.1-.2.2-.4.2-.6 0-.2-.1-.4-.2-.6z"/></g><g id="XMLID_1_"><path id="XMLID_4_" class="st0" d="M13 11.6c0-.2-.1-.4-.2-.6-.2-.2-.4-.2-.6-.2H.8c-.2 0-.4.1-.6.2-.1.2-.2.4-.2.6 0 .2.1.4.2.6l5.7 5.7c.2.2.4.2.6.2s.4-.1.6-.2l5.7-5.7c.1-.2.2-.4.2-.6z"/></g></svg>