<svg xmlns="http://www.w3.org/2000/svg" width="32" height="32" viewBox="0 0 32 32"><title>timeline</title><path fill="#FF6135" d="M30.667 10.667c0 1.467-1.2 2.667-2.667 2.667-.24 0-.467-.027-.68-.093l-4.747 4.733c.067.213.093.453.093.693 0 1.467-1.2 2.667-2.667 2.667s-2.667-1.2-2.667-2.667c0-.24.027-.48.093-.693l-3.4-3.4c-.213.067-.453.093-.693.093s-.48-.027-.693-.093l-6.067 6.08c.067.213.093.44.093.68 0 1.467-1.2 2.667-2.667 2.667s-2.667-1.2-2.667-2.667 1.2-2.667 2.667-2.667c.24 0 .467.027.68.093l6.08-6.067a2.34 2.34 0 0 1-.093-.693c0-1.467 1.2-2.667 2.667-2.667s2.667 1.2 2.667 2.667c0 .24-.027.48-.093.693l3.4 3.4c.213-.067.453-.093.693-.093s.48.027.693.093l4.733-4.747a2.254 2.254 0 0 1-.093-.68c0-1.467 1.2-2.667 2.667-2.667s2.667 1.2 2.667 2.667z"/></svg>